<svg width="15" height="13" fill="none" xmlns="http://www.w3.org/2000/svg">
  <path d="M2.34.66a.5.5 0 0 1 .47.46V3c0 .26-.23.47-.47.47H.47A.46.46 0 0 1 0 3V1.12C0 .9.2.67.47.67h1.87Zm0 4.68a.5.5 0 0 1 .47.47V7.7c0 .26-.23.47-.47.47H.47A.46.46 0 0 1 0 7.69V5.8c0-.23.2-.47.47-.47h1.87Zm0 4.7a.5.5 0 0 1 .47.46v1.88c0 .26-.23.46-.47.46H.47a.46.46 0 0 1-.47-.46V10.5c0-.23.2-.47.47-.47h1.87Zm12.2-4a.5.5 0 0 1 .46.48v.46c0 .27-.23.47-.47.47H5.16a.46.46 0 0 1-.47-.47v-.46c0-.24.2-.47.47-.47h9.37Zm0 4.7a.5.5 0 0 1 .46.46v.47c0 .27-.23.47-.47.47H5.16a.46.46 0 0 1-.47-.47v-.47c0-.23.2-.47.47-.47h9.37Zm0-9.38a.5.5 0 0 1 .46.47v.47c0 .26-.23.47-.47.47H5.16a.46.46 0 0 1-.47-.47v-.47c0-.24.2-.47.47-.47h9.37Z" fill="#fff"/>
</svg>
