<svg width="36" height="20" fill="none" xmlns="http://www.w3.org/2000/svg">
  <path d="M21 10.94c2.6 0 4.75 2.14 4.75 4.74v.88c0 .95-.77 1.69-1.69 1.69H11.7c-.95 0-1.69-.74-1.69-1.69v-.88c0-2.6 2.1-4.74 4.71-4.74 1.02 0 1.48.56 3.16.56 1.66 0 2.11-.56 3.13-.56Zm3.06 5.62v-.88A3.06 3.06 0 0 0 21 12.63c-.52 0-1.33.56-3.13.56-1.82 0-2.63-.56-3.16-.56a3.03 3.03 0 0 0-3.02 3.05v.88h12.37Zm-6.18-6.18a5.06 5.06 0 1 1 0-10.12 5.06 5.06 0 0 1 0 10.11Zm0-8.44a3.38 3.38 0 1 0 3.38 3.38 3.42 3.42 0 0 0-3.38-3.38Z" fill="#fff"/>
</svg>
